<svg width="6" height="6" viewBox="0 0 6 6" fill="none" xmlns="http://www.w3.org/2000/svg">
<path d="M3.26446 0.80395L3.71018 1.68091C3.77124 1.80128 3.93092 1.91918 4.06493 1.93904L4.86224 2.06767C5.37276 2.14892 5.49229 2.51742 5.13003 2.88639L4.51297 3.51134C4.40994 3.61609 4.35122 3.82073 4.38615 3.96381L4.5679 4.73128C4.71079 5.3372 4.39052 5.57509 3.85327 5.26116L3.10276 4.82255C2.96608 4.74238 2.74442 4.74561 2.61059 4.82559L1.86599 5.27147C1.33297 5.59015 1.00902 5.35679 1.14474 4.7497L1.31821 3.98145C1.3506 3.83784 1.29209 3.63382 1.18735 3.5308L0.558882 2.91267C0.192206 2.54919 0.307165 2.17945 0.815772 2.09125L1.60991 1.9541C1.74397 1.92984 1.90242 1.81326 1.96089 1.69106L2.39616 0.807126C2.63383 0.330989 3.02387 0.329345 3.26446 0.80395Z" fill="#F7CB46"/>
</svg>
