<svg width="81" height="81" viewBox="0 0 81 81" fill="none" xmlns="http://www.w3.org/2000/svg">
<g clip-path="url(#clip0_4764_17624)">
<rect width="81" height="81" rx="40.5" fill="#173D40"/>
<circle cx="45" cy="41" r="1.875" fill="#3250FF"/>
<g clip-path="url(#clip1_4764_17624)">
<mask id="mask0_4764_17624" style="mask-type:luminance" maskUnits="userSpaceOnUse" x="10" y="10" width="61" height="61">
<path d="M10.9688 10.9688H70.0312V70.0312H10.9688V10.9688Z" fill="white"/>
</mask>
<g mask="url(#mask0_4764_17624)">
<mask id="mask1_4764_17624" style="mask-type:luminance" maskUnits="userSpaceOnUse" x="10" y="10" width="61" height="61">
<path d="M10.9688 10.9688H70.0312V70.0312H10.9688V10.9688Z" fill="white"/>
</mask>
<g mask="url(#mask1_4764_17624)">
<rect x="21" y="21" width="40" height="40" rx="20" fill="#25A7B0"/>
<path d="M31.0312 34.3012L32.3112 33.0312L49.0312 49.7512L47.7612 51.0312L44.6812 47.9513C43.5312 48.3313 42.3112 48.5312 41.0312 48.5312C36.0312 48.5312 31.7612 45.4212 30.0312 41.0312C30.7212 39.2712 31.8212 37.7213 33.2212 36.4913L31.0312 34.3012ZM41.0312 38.0312C41.8269 38.0312 42.59 38.3473 43.1526 38.9099C43.7152 39.4725 44.0312 40.2356 44.0312 41.0312C44.0318 41.3718 43.9743 41.71 43.8612 42.0312L40.0312 38.2013C40.3525 38.0882 40.6907 38.0307 41.0312 38.0312ZM41.0312 33.5312C46.0312 33.5312 50.3012 36.6413 52.0312 41.0312C51.2146 43.1042 49.8278 44.9036 48.0312 46.2213L46.6112 44.7913C47.9942 43.8347 49.1095 42.5404 49.8512 41.0312C49.0429 39.3811 47.7878 37.9909 46.2286 37.0186C44.6694 36.0463 42.8687 35.531 41.0312 35.5312C39.9412 35.5312 38.8712 35.7113 37.8712 36.0312L36.3312 34.5012C37.7712 33.8812 39.3612 33.5312 41.0312 33.5312ZM32.2112 41.0312C33.0196 42.6814 34.2747 44.0716 35.8339 45.0439C37.3931 46.0162 39.1938 46.5315 41.0312 46.5312C41.7212 46.5312 42.4012 46.4613 43.0312 46.3213L40.7512 44.0312C40.0554 43.9567 39.4061 43.6461 38.9112 43.1513C38.4164 42.6564 38.1058 42.0071 38.0312 41.3112L34.6312 37.9012C33.6412 38.7512 32.8112 39.8112 32.2112 41.0312Z" fill="#FCFCFD"/>
</g>
</g>
</g>
</g>
<defs>
<clipPath id="clip0_4764_17624">
<rect width="81" height="81" rx="40.5" fill="white"/>
</clipPath>
<clipPath id="clip1_4764_17624">
<rect width="59.0625" height="59.0625" fill="white" transform="translate(10.9688 10.9688)"/>
</clipPath>
</defs>
</svg>
